{"asset":{"version":"2.0","generator":"THREE.GLTFExporter"},"scenes":[{"name":"AuxScene","nodes":[0]}],"scene":0,"nodes":[{"mesh":0}],"bufferViews":[{"buffer":0,"byteOffset":0,"byteLength":28188,"target":34962,"byteStride":12},{"buffer":0,"byteOffset":28188,"byteLength":28188,"target":34962,"byteStride":12},{"buffer":0,"byteOffset":56376,"byteLength":18792,"target":34962,"byteStride":8},{"buffer":0,"byteOffset":75168,"byteLength":18792,"target":34962,"byteStride":8},{"buffer":0,"byteOffset":93960,"byteLength":7200,"target":34963}],"buffers":[{"byteLength":101160,"uri":"data:application/octet-stream;base64,"}],"accessors":[{"bufferView":0,"componentType":5126,"count":2349,"max":[86,0.0027658254839479923,77.99205017089844],"min":[-30,-0.007674600929021835,-25.998750686645508],"type":"VEC3"},{"bufferView":1,"componentType":5126,"count":2349,"max":[0.00019961090583819896,1,0.0003579348267521709],"min":[-0.0002866809081751853,0.9999999403953552,0.000007610627108078916],"type":"VEC3"},{"bufferView":2,"componentType":5126,"count":2349,"max":[0.5,0.23076921701431274],"min":[0,0],"type":"VEC2"},{"bufferView":3,"componentType":5126,"count":2349,"max":[-1,0],"min":[-1,0],"type":"VEC2"},{"bufferView":4,"componentType":5123,"count":3600,"max":[2348],"min":[0],"type":"SCALAR"}],"materials":[{"pbrMetallicRoughness":{"metallicFactor":0.5,"roughnessFactor":0.5,"baseColorTexture":{"index":0}},"alphaMode":"MASK","alphaCutoff":0.01}],"textures":[{"sampler":0,"source":0}],"samplers":[{"magFilter":9728,"minFilter":9728,"wrapS":33071,"wrapT":33071}],"images":[{"mimeType":"image/png","uri":"data:image/png;base64,"}],"meshes":[{"primitives":[{"mode":4,"attributes":{"POSITION":0,"NORMAL":1,"TEXCOORD_0":2,"_UVANIMATION":3},"indices":4,"material":0}]}]}