{"asset":{"version":"2.0","generator":"THREE.GLTFExporter"},"scenes":[{"name":"AuxScene","nodes":[0]}],"scene":0,"nodes":[{"mesh":0}],"bufferViews":[{"buffer":0,"byteOffset":0,"byteLength":1800,"target":34962,"byteStride":12},{"buffer":0,"byteOffset":1800,"byteLength":1800,"target":34962,"byteStride":12},{"buffer":0,"byteOffset":3600,"byteLength":1200,"target":34962,"byteStride":8},{"buffer":0,"byteOffset":4800,"byteLength":1200,"target":34962,"byteStride":8},{"buffer":0,"byteOffset":6000,"byteLength":456,"target":34963}],"buffers":[{"byteLength":6456,"uri":"data:application/octet-stream;base64,"}],"accessors":[{"bufferView":0,"componentType":5126,"count":150,"max":[10.25,5.500412940979004,0.25],"min":[-5.271875888986826e-16,0.25,-4.25],"type":"VEC3"},{"bufferView":1,"componentType":5126,"count":150,"max":[1,1,1],"min":[-1,-0.000009524306733510457,-1],"type":"VEC3"},{"bufferView":2,"componentType":5126,"count":150,"max":[0.9879518151283264,1],"min":[0,0],"type":"VEC2"},{"bufferView":3,"componentType":5126,"count":150,"max":[-1,0],"min":[-1,0],"type":"VEC2"},{"bufferView":4,"componentType":5123,"count":228,"max":[149],"min":[0],"type":"SCALAR"}],"materials":[{"pbrMetallicRoughness":{"metallicFactor":0.5,"roughnessFactor":0.5,"baseColorTexture":{"index":0}},"alphaMode":"MASK","alphaCutoff":0.01}],"textures":[{"sampler":0,"source":0}],"samplers":[{"magFilter":9728,"minFilter":9728,"wrapS":33071,"wrapT":33071}],"images":[{"mimeType":"image/png","uri":"data:image/png;base64,"}],"meshes":[{"primitives":[{"mode":4,"attributes":{"POSITION":0,"NORMAL":1,"TEXCOORD_0":2,"_UVANIMATION":3},"indices":4,"material":0}]}]}