{"asset":{"version":"2.0","generator":"THREE.GLTFExporter"},"scenes":[{"name":"AuxScene","nodes":[0]}],"scene":0,"nodes":[{"mesh":0}],"bufferViews":[{"buffer":0,"byteOffset":0,"byteLength":228,"target":34962,"byteStride":12},{"buffer":0,"byteOffset":228,"byteLength":228,"target":34962,"byteStride":12},{"buffer":0,"byteOffset":456,"byteLength":152,"target":34962,"byteStride":8},{"buffer":0,"byteOffset":608,"byteLength":152,"target":34962,"byteStride":8},{"buffer":0,"byteOffset":760,"byteLength":60,"target":34963}],"buffers":[{"byteLength":820,"uri":"data:application/octet-stream;base64,"}],"accessors":[{"bufferView":0,"componentType":5126,"count":19,"max":[0,6.001281261444092,0.00005000249802833423],"min":[-8,-0.5,-9.5],"type":"VEC3"},{"bufferView":1,"componentType":5126,"count":19,"max":[0.00003305419522803277,1,1],"min":[-0.00003306071084807627,-0.0000495276071887929,0.00010003540955949575],"type":"VEC3"},{"bufferView":2,"componentType":5126,"count":19,"max":[0.875,0.5],"min":[0.7083333134651184,0.1875],"type":"VEC2"},{"bufferView":3,"componentType":5126,"count":19,"max":[-1,0],"min":[-1,0],"type":"VEC2"},{"bufferView":4,"componentType":5123,"count":30,"max":[18],"min":[0],"type":"SCALAR"}],"materials":[{"pbrMetallicRoughness":{"metallicFactor":0.5,"roughnessFactor":0.5,"baseColorTexture":{"index":0}},"alphaMode":"MASK","alphaCutoff":0.01}],"textures":[{"sampler":0,"source":0}],"samplers":[{"magFilter":9728,"minFilter":9728,"wrapS":33071,"wrapT":33071}],"images":[{"mimeType":"image/png","uri":"data:image/png;base64,"}],"meshes":[{"primitives":[{"mode":4,"attributes":{"POSITION":0,"NORMAL":1,"TEXCOORD_0":2,"_UVANIMATION":3},"indices":4,"material":0}]}]}