{"asset":{"version":"2.0","generator":"THREE.GLTFExporter"},"scenes":[{"nodes":[0]}],"scene":0,"nodes":[{"name":"default","mesh":0}],"bufferViews":[{"buffer":0,"byteOffset":0,"byteLength":4392,"target":34962,"byteStride":12},{"buffer":0,"byteOffset":4392,"byteLength":4392,"target":34962,"byteStride":12},{"buffer":0,"byteOffset":8784,"byteLength":2928,"target":34962,"byteStride":8},{"buffer":0,"byteOffset":11712,"byteLength":2928,"target":34962,"byteStride":8},{"buffer":0,"byteOffset":14640,"byteLength":660,"target":34963},{"buffer":0,"byteOffset":15300,"byteLength":432,"target":34963}],"buffers":[{"byteLength":15732,"uri":"data:application/octet-stream;base64,"}],"accessors":[{"bufferView":0,"componentType":5126,"count":366,"max":[54,4.5,26.997350692749023],"min":[-3,-0.5,-5.999650001525879],"type":"VEC3"},{"bufferView":1,"componentType":5126,"count":366,"max":[0.001528703374788165,1,1],"min":[-0.0012883772142231464,-0.002453751862049103,-0.0014238025760278106],"type":"VEC3"},{"bufferView":2,"componentType":5126,"count":366,"max":[1,1],"min":[0,0.03333336114883423],"type":"VEC2"},{"bufferView":3,"componentType":5126,"count":366,"max":[-1,0],"min":[-1,0],"type":"VEC2"},{"bufferView":4,"componentType":5123,"count":330,"max":[221],"min":[0],"type":"SCALAR"},{"bufferView":5,"componentType":5123,"count":216,"max":[365],"min":[222],"type":"SCALAR"}],"materials":[{"pbrMetallicRoughness":{"metallicFactor":0.5,"roughnessFactor":0.5,"baseColorTexture":{"index":0}},"alphaMode":"MASK","alphaCutoff":0.01},{"pbrMetallicRoughness":{"metallicFactor":0.5,"roughnessFactor":0.5,"baseColorTexture":{"index":1}},"alphaMode":"MASK","alphaCutoff":0.01}],"textures":[{"sampler":0,"source":0},{"sampler":1,"source":1}],"samplers":[{"magFilter":9728,"minFilter":9728,"wrapS":33071,"wrapT":33071},{"magFilter":9728,"minFilter":9728,"wrapS":33071,"wrapT":33071}],"images":[{"mimeType":"image/png","uri":"data:image/png;base64,"},{"mimeType":"image/png","uri":"data:image/png;base64,"}],"meshes":[{"primitives":[{"mode":4,"attributes":{"POSITION":0,"NORMAL":1,"TEXCOORD_0":2,"_UVANIMATION":3},"indices":4,"material":0},{"mode":4,"attributes":{"POSITION":0,"NORMAL":1,"TEXCOORD_0":2,"_UVANIMATION":3},"indices":5,"material":1}]}]}